HIERARCHY
ROOT Hips
{
  OFFSET 3.13124 94.3669 -3.18751
  CHANNELS  6 Xposition Yposition Zposition Zrotation Xrotation Yrotation
  JOINT LeftUpLeg
  {
    OFFSET 8.64259 1.95398 -2.38835
    CHANNELS 3 Zrotation Xrotation Yrotation
    JOINT LeftLeg
    {
      OFFSET 43.7702 0 0
      CHANNELS 3 Zrotation Xrotation Yrotation
      JOINT LeftFoot
      {
        OFFSET 40.6238 0 0
        CHANNELS 3 Zrotation Xrotation Yrotation
        JOINT LeftToeBase
        {
          OFFSET 12.7242 0 0
          CHANNELS 3 Zrotation Xrotation Yrotation
          End Site
          {
            OFFSET 0 0 0
          }
        }
      }
    }
  }
  JOINT RightUpLeg
  {
    OFFSET -8.2249 1.95398 -2.59336
    CHANNELS 3 Zrotation Xrotation Yrotation
    JOINT RightLeg
    {
      OFFSET 43.5653 0 0
      CHANNELS 3 Zrotation Xrotation Yrotation
      JOINT RightFoot
      {
        OFFSET 40.6238 0 0
        CHANNELS 3 Zrotation Xrotation Yrotation
        JOINT RightToeBase
        {
          OFFSET 12.7242 0 0
          CHANNELS 3 Zrotation Xrotation Yrotation
          End Site
          {
            OFFSET 0 0 0
          }
        }
      }
    }
  }
  JOINT Spine
  {
    OFFSET 0.165834 0.87714 6.61349
    CHANNELS 3 Zrotation Xrotation Yrotation
    JOINT Spine1
    {
      OFFSET 7.38962 1.71661e-005 0
      CHANNELS 3 Zrotation Xrotation Yrotation
      JOINT Spine2
      {
        OFFSET 11.9445 1.14441e-005 0
        CHANNELS 3 Zrotation Xrotation Yrotation
        JOINT Spine3
        {
          OFFSET 14.7254 4.19617e-005 0
          CHANNELS 3 Zrotation Xrotation Yrotation
          JOINT Spine4
          {
            OFFSET 10.9679 0 0
            CHANNELS 3 Zrotation Xrotation Yrotation
            JOINT RightShoulder
            {
              OFFSET 2.46616 -1.6653 3.69651
              CHANNELS 3 Zrotation Xrotation Yrotation
              JOINT RightArm
              {
                OFFSET 13.0012 0 0
                CHANNELS 3 Zrotation Xrotation Yrotation
                JOINT RightForeArm
                {
                  OFFSET 28.7848 1.52588e-005 0
                  CHANNELS 3 Zrotation Xrotation Yrotation
                  JOINT RightHand
                  {
                    OFFSET 26.5688 1.52588e-005 0
                    CHANNELS 3 Zrotation Xrotation Yrotation
                    End Site
                    {
                      OFFSET 0 0 0
                    }
                  }
                }
              }
            }
            JOINT LeftShoulder
            {
              OFFSET 2.38034 -1.29275 -3.75231
              CHANNELS 3 Zrotation Xrotation Yrotation
              JOINT LeftArm
              {
                OFFSET 16.3182 6.10352e-005 0
                CHANNELS 3 Zrotation Xrotation Yrotation
                JOINT LeftForeArm
                {
                  OFFSET 27.0901 0 0
                  CHANNELS 3 Zrotation Xrotation Yrotation
                  JOINT LeftHand
                  {
                    OFFSET 24.5451 1.52588e-005 0
                    CHANNELS 3 Zrotation Xrotation Yrotation
                    End Site
                    {
                      OFFSET 0 0 0
                    }
                  }
                }
              }
            }
            JOINT Neck
            {
              OFFSET 5.0226 -0.0266342 0
              CHANNELS 3 Zrotation Xrotation Yrotation
              JOINT Head
              {
                OFFSET 6.69363 2.86102e-005 0
                CHANNELS 3 Zrotation Xrotation Yrotation
                End Site
                {
                  OFFSET 0 0 0
                }
              }
            }
          }
        }
      }
    }
  }
}
MOTION
Frames:	15
Frame Time:	0.0333333
25.1115 97.7118 -144.564 86.268 -80.6469 86.695 -171.805 24.5639 97.0182 -33.0138 4.65025 7.58212 22.2502 -5.405 -9.03475 28.7808 6.26737e-006 -2.32938e-006 -178.149 29.6747 77.7256 -45.3945 -12.6098 -1.10648 0.94175 4.94257 11.6794 28.7808 1.41042e-005 2.50878e-005 -0.990202 7.20042 -84.802 12.3953 0.613726 3.47291 0.719976 0.765889 3.44259 -21.7782 -0.457715 3.49687 -1.76553 -0.457718 3.49685 101.742 -22.2263 -83.1033 -29.8251 -66.7054 -27.2564 -39.6599 34.3354 -87.3067 -5.37983 -0.320009 -0.0162415 -81.3951 -43.864 91.2501 -21.6489 -23.6729 17.223 4.99017 28.9162 -15.1544 15.6331 -1.82558 -15.0606 -32.5901 -8.41548 -1.27675 5.95739 -8.98242 -2.44145 
22.9483 97.9029 -143.9 95.8657 -84.7 95.5962 -171.349 22.4271 96.1551 -33.2272 1.97505 6.1191 23.5312 -3.81026 -6.91515 28.7808 6.26737e-006 -2.32938e-006 -178.22 29.3478 78.0319 -45.2439 -17.661 -1.35879 0.137162 5.80791 13.4389 28.7808 1.41042e-005 2.50878e-005 -0.833098 7.07353 -84.4529 12.6561 0.909816 3.49951 0.980905 1.06287 3.45614 -21.5164 -0.183251 3.61106 -1.50376 -0.183246 3.61106 103.592 -21.6456 -78.7309 -34.5537 -63.8137 -31.3168 -39.6579 34.2383 -87.6717 -5.37983 -0.320009 -0.0162415 -81.1282 -42.0451 91.5527 -24.7315 -24.5523 16.1803 10.4584 37.5602 -14.7297 11.0767 -2.56557 -25.1191 -28.4463 -8.72692 -3.25352 1.89571 -9.37866 -2.83748 
20.7936 98.1992 -143.322 149.792 -89.3176 149.334 -171.117 21.3339 95.9274 -32.6038 2.50707 5.87558 22.5607 -3.78256 -7.08324 28.7808 6.26737e-006 -2.32938e-006 -178.457 29.5822 79.0534 -44.4002 -22.5973 -1.59281 -0.0340975 6.17944 14.1447 28.7808 1.41042e-005 2.50878e-005 -0.715232 6.82964 -84.3142 13.1547 1.16791 3.50874 1.47965 1.32112 3.45403 -21.0176 0.0601819 3.69728 -1.00496 0.0601905 3.69729 103.667 -22.0558 -78.578 -32.1162 -60.6773 -28.3668 -38.0466 32.881 -88.9113 -5.37983 -0.320009 -0.0162415 -80.7053 -40.2509 92.1369 -27.6936 -24.267 15.4705 15.3498 44.6011 -16.0691 5.92312 -2.12266 -31.8904 -26.6418 -8.93496 -5.46561 0.133201 -9.68872 -2.77213 
18.5974 98.4707 -142.792 -101.831 -86.9406 -102.848 -171.098 21.0163 94.8926 -33.2751 9.70243 6.76331 21.6568 -2.38209 -5.71672 28.7808 6.26737e-006 -2.32938e-006 -178.594 29.5348 79.8138 -44.3509 -24.8341 -1.70714 1.11335 6.38793 14.1501 28.7808 1.41042e-005 2.50878e-005 -0.827184 6.65648 -84.2408 13.4858 0.956561 3.69992 1.81005 1.11837 3.65432 -20.6828 -0.198759 3.81625 -0.670131 -0.198756 3.81624 103.835 -23.4103 -78.2707 -31.6961 -57.038 -28.4492 -36.1381 31.152 -90.1531 -5.37983 -0.320009 -0.0162415 -80.8028 -39.6318 91.9266 -29.0331 -23.6175 15.2208 20.1609 50.0742 -18.794 0.378241 -0.927435 -37.5875 -24.7659 -8.95711 -7.51784 -1.16132 -9.7278 -2.22667 
16.473 98.7338 -142.402 -102.102 -85.151 -103.835 -170.901 20.9978 93.399 -34.6925 19.2986 7.15203 20.4008 1.03502 -1.83197 28.7808 6.26737e-006 -2.32938e-006 -178.665 29.2336 80.7153 -45.2727 -24.6478 -1.71382 2.72019 5.53271 12.1817 28.7808 1.41042e-005 2.50878e-005 -1.06137 6.52668 -84.1924 13.7184 0.473728 3.86405 2.04193 0.643204 3.83951 -20.448 -0.708581 3.828 -0.435352 -0.708589 3.828 104.028 -24.0443 -77.8708 -32.2407 -54.5201 -30.1242 -35.0651 29.9467 -90.8698 -5.37983 -0.320009 -0.0162415 -81.2248 -39.4162 91.1834 -30.1453 -22.9305 14.578 23.687 57.4113 -20.4217 2.55369 -1.9464 -45.4876 -23.9923 -9.16362 -7.55574 -1.94238 -9.86978 -3.09192 
14.7164 98.9991 -142.159 -101.69 -83.101 -104.272 -171.118 20.7381 91.5775 -34.9413 29.628 8.34059 16.1064 0.0958526 -3.54961 28.7808 6.26737e-006 -2.32938e-006 -178.749 28.7778 81.1741 -45.7209 -24.5611 -1.71755 4.11937 4.91329 10.7697 28.7808 1.41042e-005 2.50878e-005 -1.21257 6.41282 -84.2761 13.9326 0.156959 4.02822 2.25543 0.333945 4.01745 -20.232 -1.06001 3.88964 -0.219378 -1.06001 3.88964 104.254 -24.2632 -77.375 -32.3687 -52.6673 -31.7681 -34.0674 28.9439 -91.2283 -5.37983 -0.320009 -0.0162415 -81.3914 -39.2346 90.8806 -30.7645 -22.635 13.5493 22.9494 60.4627 -19.4834 7.64114 -4.32542 -50.2688 -23.5854 -9.49649 -7.56572 -1.91739 -10.1765 -3.16342 
13.3536 99.1365 -141.919 -101.113 -79.704 -104.199 -171.448 19.7081 90.1551 -33.9119 35.0935 9.1063 13.798 -2.48067 -7.41266 28.7808 6.26737e-006 -2.32938e-006 -178.899 28.3715 81.7133 -45.9391 -26.2812 -1.81569 4.54672 4.43174 9.86302 28.7808 1.41042e-005 2.50878e-005 -1.1673 6.37276 -84.5054 14.0211 0.14101 3.97269 2.34409 0.315579 3.96265 -20.1447 -1.05857 3.83186 -0.132087 -1.05857 3.83187 104.224 -23.854 -77.4126 -31.2275 -50.1061 -31.9756 -32.6167 27.7495 -92.0723 -5.37983 -0.320009 -0.0162415 -81.4412 -39.5424 90.8212 -31.0248 -22.3143 12.309 23.0265 60.982 -19.594 6.61527 -4.21324 -53.5676 -22.205 -9.79453 -6.29464 -1.80033 -10.3021 -3.77809 
12.2216 99.1404 -141.746 -99.5951 -75.6827 -103.103 -171.803 19.0323 88.7298 -32.6105 37.6321 9.00011 12.9225 -3.24838 -8.67496 28.7808 6.26737e-006 -2.32938e-006 -179.005 28.4414 82.1927 -46.195 -28.9108 -1.96952 4.1166 4.06789 9.34363 28.7808 1.41042e-005 2.50878e-005 -1.04897 6.34962 -84.6974 14.0818 0.312937 3.85721 2.40522 0.482285 3.83974 -20.0854 -0.859921 3.77326 -0.0727989 -0.859912 3.77325 104.018 -24.5307 -77.9261 -30.0229 -46.8658 -31.1689 -30.8736 26.4403 -92.8368 -5.37983 -0.320009 -0.0162415 -81.2956 -39.0995 91.0349 -31.9894 -21.8257 11.4273 24.5684 61.4655 -21.592 8.53809 -5.20849 -54.4383 -20.3446 -9.87394 -5.89941 -1.5471 -10.2438 -3.31004 
11.231 99.052 -141.46 -101.598 -71.1747 -105.242 -171.871 18.4469 87.4858 -32.4237 37.0558 8.02779 12.3273 -2.54184 -7.86324 28.7808 6.26737e-006 -2.32938e-006 -179.072 27.6168 82.5938 -46.8002 -31.6331 -2.13962 3.74023 3.94995 9.20766 28.7808 1.41042e-005 2.50878e-005 -0.87639 6.41214 -84.671 13.9704 0.57446 3.67435 2.29446 0.735525 3.64556 -20.1995 -0.555602 3.67724 -0.186811 -0.555589 3.67724 103.491 -25.3708 -79.1489 -28.0806 -43.1664 -30.1502 -28.5605 24.3194 -93.441 -5.37983 -0.320009 -0.0162415 -81.1513 -37.682 91.1684 -33.5974 -20.871 10.4276 15.0924 50.1727 -14.2297 3.25683 -2.50741 -50.8819 -18.6504 -9.63974 -5.95139 -1.86104 -9.89079 -2.77028 
10.372 99.054 -141.247 -101.474 -67.4204 -105.437 -172.19 18.7612 85.8553 -32.4255 36.1987 7.09068 12.2403 -0.130234 -4.39757 28.7808 6.26737e-006 -2.32938e-006 -179.058 27.2117 82.4182 -46.6546 -34.6977 -2.31965 2.79932 4.90899 11.0345 28.7808 1.41042e-005 2.50878e-005 -0.824369 6.43368 -84.6475 13.9343 0.686377 3.462 2.259 0.837989 3.42849 -20.2393 -0.385149 3.50825 -0.226644 -0.385142 3.50825 103.201 -26.3542 -79.8222 -27.0757 -39.0111 -30.4562 -26.1808 21.993 -93.5878 -5.37983 -0.320009 -0.0162415 -80.8797 -37.3668 91.6231 -34.1677 -20.0022 9.9606 14.5184 46.9984 -14.4995 0.447319 -1.16889 -47.5938 -16.6804 -9.33951 -5.52002 -2.29324 -9.45065 -2.54685 
9.69958 98.9902 -141.001 -100.347 -63.71 -104.156 -172.332 19.5545 85.0162 -31.9031 36.3845 6.16927 11.5226 1.44791 -2.17107 28.7808 6.26737e-006 -2.32938e-006 -179.145 27.1639 82.9511 -46.6926 -36.5602 -2.4404 2.53325 5.09289 11.4125 28.7808 1.41042e-005 2.50878e-005 -0.757797 6.42629 -84.8281 13.9615 0.799378 3.18596 2.28694 0.938766 3.14774 -20.2169 -0.194534 3.27886 -0.204214 -0.194528 3.27885 102.824 -28.4524 -80.6852 -26.5979 -34.4015 -30.6117 -23.7328 19.4946 -93.2524 -5.37983 -0.320009 -0.0162415 -80.5789 -37.1763 92.1425 -34.4111 -16.585 9.48708 12.6745 47.8956 -16.4035 7.275 -2.70388 -34.3372 -14.5099 -8.8447 -5.74238 -3.13274 -8.81452 -1.64314 
9.06592 98.7884 -140.629 -100.912 -59.8904 -104.1 -172.318 19.8099 84.8227 -31.3265 37.5624 5.5756 6.71245 1.59729 -2.31189 28.7808 6.26737e-006 -2.32938e-006 -179.264 26.4571 83.6887 -47.1778 -37.7964 -2.53674 2.70019 5.31646 11.7511 28.7808 1.41042e-005 2.50878e-005 -0.622016 6.44692 -85.085 13.9383 0.934758 2.75244 2.2649 1.05498 2.70866 -20.247 0.0647129 2.906 -0.234304 0.0647235 2.906 102.407 -28.7955 -81.5627 -24.1818 -29.678 -31.0715 -20.8561 16.2009 -92.5732 -5.37983 -0.320009 -0.0162415 -80.6117 -36.7104 92.0506 -35.0215 -16.1494 9.75656 12.0944 47.268 -16.0993 6.67143 -2.60541 -35.3936 -12.6569 -8.34177 -4.8622 -4.37616 -8.20929 -1.61262 
8.53242 98.6282 -140.315 -101.277 -55.3695 -103.701 -172.308 19.5322 85.2008 -31.6198 34.9005 5.07822 2.55122 2.48335 -1.01313 28.7808 6.26737e-006 -2.32938e-006 -179.347 25.6639 84.4481 -47.4131 -38.462 -2.5856 2.77156 5.6052 12.2201 28.7808 1.41042e-005 2.50878e-005 -0.440662 6.52934 -85.1649 13.7955 1.16077 2.31674 2.12309 1.26159 2.26343 -20.3963 0.411093 2.55832 -0.383673 0.411098 2.55832 101.718 -30.7653 -82.9679 -22.872 -23.8348 -31.7209 -17.8161 12.8683 -91.2368 -5.37983 -0.320009 -0.0162415 -80.7136 -35.7093 91.7919 -35.7655 -15.3232 9.8634 11.1583 46.4769 -15.7772 6.13853 -2.50286 -35.978 -11.9833 -7.72414 -6.45309 -3.00826 -7.53528 1.05444 
7.84316 98.5675 -139.901 -102.769 -50.949 -104.713 -172.061 18.1548 85.7686 -33.3687 32.0165 5.29624 1.59614 2.49325 -1.02965 28.7808 6.26737e-006 -2.32938e-006 -179.352 24.1855 84.7176 -47.8967 -38.3273 -2.5836 2.47261 5.46478 12.0451 28.7808 1.41042e-005 2.50878e-005 -0.233543 6.66365 -85.0473 13.5469 1.34517 2.03419 1.87513 1.43336 1.97305 -20.6491 0.671808 2.34427 -0.636436 0.671795 2.34426 100.91 -32.8363 -84.5199 -21.2954 -18.0612 -32.9565 -14.6017 9.34951 -89.132 -5.37983 -0.320009 -0.0162415 -80.9868 -34.2019 91.1686 -36.7739 -14.7228 10.4503 10.6497 45.4278 -15.6846 4.6662 -2.18519 -37.4718 -11.1508 -6.88449 -7.15049 -3.68519 -6.63261 2.13571 
7.18848 98.5446 -139.5 -103.482 -45.9565 -105.54 -171.763 16.2217 86.2424 -33.0648 30.048 5.05538 0.0785169 1.26914 -3.32754 28.7808 6.26737e-006 -2.32938e-006 -179.328 23.1072 84.4751 -48.5929 -37.4872 -2.54522 1.85913 4.87829 11.1868 28.7808 1.41042e-005 2.50878e-005 0.0225232 6.71479 -85.0232 13.4682 1.62668 1.94452 1.79689 1.71067 1.87106 -20.7301 0.96726 2.34334 -0.717467 0.967261 2.34332 99.6511 -34.7462 -86.8466 -19.0303 -13.3748 -34.5157 -11.8218 6.35133 -86.4851 -5.37983 -0.320009 -0.0162415 -80.9082 -32.7676 91.1885 -37.3153 -14.1762 11.1839 10.2113 45.4797 -15.5448 4.34391 -2.14801 -38.4042 -11.3348 -5.92336 -7.52277 -4.16249 -5.69083 2.91785 
